<?xml version="1.0" standalone="no"?><!DOCTYPE svg PUBLIC "-//W3C//DTD SVG 1.1//EN" "http://www.w3.org/Graphics/SVG/1.1/DTD/svg11.dtd"><svg t="1746606019537" class="icon" viewBox="0 0 1024 1024" version="1.1" xmlns="http://www.w3.org/2000/svg" p-id="6776" xmlns:xlink="http://www.w3.org/1999/xlink" width="200" height="200"><path d="M921.6 34.133333a68.266667 68.266667 0 0 1 68.266667 68.266667v819.2a68.266667 68.266667 0 0 1-68.266667 68.266667H102.4a68.266667 68.266667 0 0 1-68.266667-68.266667V102.4a68.266667 68.266667 0 0 1 68.266667-68.266667h819.2m0-34.133333H102.4a102.4 102.4 0 0 0-102.4 102.4v819.2a102.4 102.4 0 0 0 102.4 102.4h819.2a102.4 102.4 0 0 0 102.4-102.4V102.4a102.4 102.4 0 0 0-102.4-102.4z" fill="#707070" p-id="6777"></path><path d="M238.933333 817.493333V206.506667h259.413334a443.733333 443.733333 0 0 1 142.336 16.384 140.288 140.288 0 0 1 70.997333 58.368 175.786667 175.786667 0 0 1 26.624 96.256 163.157333 163.157333 0 0 1-40.277333 113.664A193.877333 193.877333 0 0 1 575.829333 546.133333a287.744 287.744 0 0 1 65.877334 51.2 694.272 694.272 0 0 1 70.314666 99.328L785.066667 817.493333h-146.090667l-89.088-132.778666a865.28 865.28 0 0 0-64.853333-89.770667 94.890667 94.890667 0 0 0-37.205334-25.6 204.8 204.8 0 0 0-62.122666-6.826667h-24.917334v254.976z m123.221334-352.597333h91.136a471.381333 471.381333 0 0 0 110.933333-7.509333 68.266667 68.266667 0 0 0 34.133333-25.941334 79.530667 79.530667 0 0 0 12.629334-45.738666 73.045333 73.045333 0 0 0-16.384-49.834667 75.434667 75.434667 0 0 0-48.469334-23.893333q-15.018667-2.048-90.112-2.048h-95.232z" fill="#707070" p-id="6778"></path></svg>